<?xml version="1.0" encoding="utf-8"?>
<svg viewBox="0 0 500 500" xmlns="http://www.w3.org/2000/svg">
  <g transform="matrix(0.8453640341758727, 0, 0, 0.8615300059318542, 33.91019922079505, 26.8487995508178)" style="">
    <path class="st0" d="M459.21,255.989c0-11.3-0.913-22.635-2.794-33.803c16.642-7.144,32.968-15.377,48.855-24.665&#10;&#9;&#9;c-3.252-13.919-7.68-27.556-13.216-40.711c-18.312,1.81-36.36,4.728-54.022,8.735c-5.061-10.14-10.948-19.859-17.608-28.988&#10;&#9;&#9;c-6.661-9.165-14.077-17.759-22.187-25.684c9.27-15.58,17.618-31.826,25.016-48.689c-10.79-9.314-22.353-17.74-34.541-25.139&#10;&#9;&#9;c-13.76,12.232-26.66,25.192-38.646,38.777c-9.999-5.255-20.49-9.657-31.246-13.137c-10.773-3.506-21.827-6.081-33.039-7.741&#10;&#9;&#9;c-1.687-18.022-4.516-36.088-8.471-54.075c-14.199-1.16-28.417-1.16-42.616,0c-3.955,17.986-6.784,36.052-8.471,54.075&#10;&#9;&#9;c-11.212,1.66-22.266,4.235-33.022,7.741c-10.772,3.48-21.264,7.882-31.264,13.137c-11.985-13.585-24.884-26.545-38.644-38.777&#10;&#9;&#9;c-12.197,7.399-23.76,15.825-34.55,25.139c7.416,16.863,15.763,33.109,25.007,48.689c-8.066,7.925-15.518,16.519-22.178,25.684&#10;&#9;&#9;c-6.643,9.147-12.548,18.848-17.609,28.988c-17.644-4.008-35.692-6.925-54.022-8.735c-5.535,13.155-9.964,26.792-13.216,40.711&#10;&#9;&#9;c15.905,9.288,32.213,17.52,48.856,24.665c-1.881,11.168-2.794,22.502-2.794,33.803c0,11.335,0.913,22.653,2.794,33.812&#10;&#9;&#9;c-16.642,7.17-32.951,15.386-48.856,24.674c3.252,13.919,7.681,27.556,13.216,40.719c18.33-1.819,36.378-4.745,54.022-8.743&#10;&#9;&#9;c5.061,10.14,10.966,19.841,17.609,28.997c6.661,9.156,14.112,17.767,22.178,25.675c-9.244,15.579-17.592,31.844-25.007,48.688&#10;&#9;&#9;c10.79,9.306,22.353,17.732,34.55,25.14c13.76-12.222,26.66-25.184,38.644-38.786c10,5.255,20.492,9.658,31.264,13.154&#10;&#9;&#9;c10.756,3.506,21.81,6.081,33.022,7.733c1.687,18.04,4.516,36.096,8.471,54.066c14.199,1.178,28.417,1.178,42.616,0&#10;&#9;&#9;c3.955-17.97,6.784-36.026,8.471-54.066c11.212-1.652,22.266-4.226,33.039-7.733c10.755-3.496,21.246-7.899,31.246-13.154&#10;&#9;&#9;c11.986,13.602,24.885,26.564,38.646,38.786c12.188-7.408,23.751-15.834,34.541-25.14c-7.398-16.844-15.746-33.109-25.016-48.688&#10;&#9;&#9;c8.11-7.908,15.526-16.519,22.187-25.675c6.66-9.156,12.547-18.857,17.608-28.997c17.662,3.998,35.71,6.924,54.022,8.743&#10;&#9;&#9;c5.536-13.163,9.964-26.8,13.216-40.719c-15.888-9.288-32.213-17.504-48.855-24.674C458.297,278.642,459.21,267.324,459.21,255.989&#10;&#9;&#9;z M110.081,303.403c-4.939-15.227-7.469-31.229-7.452-47.414c-0.017-16.159,2.513-32.16,7.452-47.414&#10;&#9;&#9;c4.938-15.228,12.337-29.7,21.809-42.713c9.455-12.988,20.966-24.516,33.988-33.988c13.004-9.473,27.45-16.854,42.704-21.801&#10;&#9;&#9;c8.787-2.856,17.855-4.798,27.046-6.01v140.186l-121.505,70.155C112.646,310.784,111.293,307.12,110.081,303.403z M255.996,279.503&#10;&#9;&#9;l121.399,70.093c-8.944,11.564-19.454,21.941-31.264,30.535c-13.004,9.463-27.485,16.845-42.704,21.8&#10;&#9;&#9;c-15.236,4.93-31.229,7.452-47.414,7.452c-16.185,0-32.195-2.522-47.432-7.452c-15.236-4.955-29.7-12.337-42.704-21.8&#10;&#9;&#9;c-11.827-8.594-22.336-18.971-31.264-30.535L255.996,279.503z M401.919,303.403c-1.195,3.717-2.548,7.382-4.051,11.002&#10;&#9;&#9;L276.363,244.24V104.063c9.191,1.213,18.259,3.155,27.064,6.01c15.255,4.947,29.7,12.328,42.704,21.801&#10;&#9;&#9;c13.005,9.472,24.534,21,34.005,33.988c9.455,13.013,16.836,27.486,21.783,42.713c4.956,15.254,7.469,31.255,7.452,47.414&#10;&#9;&#9;C409.389,272.174,406.875,288.176,401.919,303.403z"/>
  </g>
  <g id="prefix__Capa_1" transform="matrix(0.22004999220371244, -0.0015589999966323376, 0.0013490000274032354, 0.19027100503444674, 54.86979075639158, 25.370968619998564)" style="">
    <g id="prefix__&lt;Group&gt;" style="" transform="matrix(1.078826, 0, 0, 1.102935, -51.310495, -74.498049)">
      <g id="prefix__&lt;Group&gt;">
        <path id="prefix__Forma_4" class="prefix__s0" d="M874.3 1380c-157.6 0-285.1-96.1-285.1-215s127.5-215 285.1-215c157.7 0 285.2 96.1 285.2 215s-127.5 215-285.2 215z" style="fill: rgb(255, 255, 255);"/>
      </g>
      <g id="prefix__&lt;Group&gt;">
        <g id="prefix__&lt;Group&gt;">
          <path id="prefix__&lt;Compound_Path&gt;" fill-rule="evenodd" class="prefix__s1" d="M1373.5 591.6c-35.1 61.7-140.1 263.3-175.7 345.8 20 18.8 35.7 38.5 44.6 58.1 39.2 84.8 38 204.4 8.6 298.9-29.3 94.6-74 145.7-118.5 192.5-65.3 68.5-162 111.4-233.8 121.7-20.4 2.9-48.7.3-75.2-2 23.7-15.2 63.7-46.3 88.9-71.5 57-56.6 61.2-84.7 61.2-84.7-76.2 77.4-258.5 197.7-323.9 220.6-34.8 12.2-114.2 27.7-164.7 23-42.8-3.8-97.9-26.3-138.7-67.1-41.3-41.4-27.1-114.2-20.6-150.1 6.6-35.8 26.1-91.3 42.5-123.9 17.4-34.7 70.7-143.4 112-202.2 49-69.5 141.7-165.9 203.4-208.7 46.6-32.3 91.8-60.6 136.7-80.5 3.3-78.6 9-164.1 10.3-190.1 1.6-33.4 18.2-153.1-38.2-217.1-47.1-56.1-135.8-91.4-209.2-104.3-73-16.2-193.2-21.5-264.1-51.6-67.9-28.8-93-183.4 52.4-132.7 53 15.3 117.8 46.8 166.4 66.4 75 26.4 169.2 57.9 240.5 87.1 91.3 31.9 132.9 44.5 137.5 143.8 3.1 66.7 20.1 271.2 33.8 369 44.7 1.1 93.1 14 137.8 34.1 42.8-61.3 88.4-123.9 102.5-144 19.2-27.3 97.3-119.6 83.9-203.8-9.9-72.6-65.9-149.9-121.1-200-53.1-52.7-151.8-121.5-195.6-184.8-42-60.7 19.4-204.7 115.2-84.1 36.6 41.3 74.5 102.4 105.1 145 49.3 62.5 112.1 139.4 156.6 202.2 60.2 75.8 88.6 108.6 39.4 195zm-363.2 407.6c-35.3-28.8-99.5-27.2-151.6 5.3-53.3 33.3-85.7 72.9-106.1 123.5-17.9 44.4-17.4 107.6 18.6 129.7 59.6 36.6 131.9 30.7 166.2 15.5 41.8-18.6 83.1-50.9 106-122.3 14.2-44.1 10.4-122.3-33.1-151.7z" style="fill: rgb(215, 44, 52);"/>
          <path id="prefix__&lt;Compound_Path&gt;_copy" fill-rule="evenodd" class="prefix__s1" d="M1373.5 591.6c-35.1 61.7-140.1 263.3-175.7 345.8 20 18.8 35.7 38.5 44.6 58.1 39.2 84.8 38 204.4 8.6 298.9-29.3 94.6-74 145.7-118.5 192.5-65.3 68.5-162 111.4-233.8 121.7-20.4 2.9-48.7.3-75.2-2 23.7-15.2 63.7-46.3 88.9-71.5 57-56.6 61.2-84.7 61.2-84.7-76.2 77.4-258.5 197.7-323.9 220.6-34.8 12.2-114.2 27.7-164.7 23-42.8-3.8-97.9-26.3-138.7-67.1-41.3-41.4-27.1-114.2-20.6-150.1 6.6-35.8 26.1-91.3 42.5-123.9 17.4-34.7 70.7-143.4 112-202.2 49-69.5 141.7-165.9 203.4-208.7 46.6-32.3 91.8-60.6 136.7-80.5 3.3-78.6 9-164.1 10.3-190.1 1.6-33.4 18.2-153.1-38.2-217.1-47.1-56.1-135.8-91.4-209.2-104.3-73-16.2-193.2-21.5-264.1-51.6-67.9-28.8-93-183.4 52.4-132.7 53 15.3 117.8 46.8 166.4 66.4 75 26.4 169.2 57.9 240.5 87.1 91.3 31.9 132.9 44.5 137.5 143.8 3.1 66.7 20.1 271.2 33.8 369 44.7 1.1 93.1 14 137.8 34.1 42.8-61.3 88.4-123.9 102.5-144 19.2-27.3 97.3-119.6 83.9-203.8-9.9-72.6-65.9-149.9-121.1-200-53.1-52.7-151.8-121.5-195.6-184.8-42-60.7 19.4-204.7 115.2-84.1 36.6 41.3 74.5 102.4 105.1 145 49.3 62.5 112.1 139.4 156.6 202.2 60.2 75.8 88.6 108.6 39.4 195zm-363.2 407.6c-35.3-28.8-99.5-27.2-151.6 5.3-53.3 33.3-85.7 72.9-106.1 123.5-17.9 44.4-17.4 107.6 18.6 129.7 59.6 36.6 131.9 30.7 166.2 15.5 41.8-18.6 83.1-50.9 106-122.3 14.2-44.1 10.4-122.3-33.1-151.7z" style="fill: rgb(215, 44, 52);"/>
        </g>
        <path id="prefix__&lt;Path&gt;" d="M936.5 1105.6c-16.4 0-29.7-13.2-29.7-29.7 0-10.7 5.8-20.1 14.4-25.3-9.8-6.5-21.1-10.2-33-10.2-38.1 0-69 37.6-69 84s30.9 84 69 84 68.9-37.6 68.9-84c0-8.6-1-16.9-3-24.7-4.9 3.7-11 5.9-17.6 5.9z" fill="#262659"/>
      </g>
    </g>
  </g>
</svg>