<svg version="1.2" xmlns="http://www.w3.org/2000/svg" width="1700" height="1700"><style>.prefix__s0{fill:#fff}.prefix__s1{fill:#d72c34}</style><g id="prefix___Artboards_"><path id="prefix__Forma_3" class="prefix__s0" d="M2121 480c-27.7 0-50-22.4-50-50s22.3-50 50-50 50 22.4 50 50-22.3 50-50 50z"/></g><g id="prefix__Capa_1"><g id="prefix__&lt;Group&gt;"><g id="prefix__&lt;Group&gt;"><path id="prefix__Forma_4" class="prefix__s0" d="M874.3 1380c-157.6 0-285.1-96.1-285.1-215s127.5-215 285.1-215c157.7 0 285.2 96.1 285.2 215s-127.5 215-285.2 215z"/></g><g id="prefix__&lt;Group&gt;"><g id="prefix__&lt;Group&gt;"><path id="prefix__&lt;Compound_Path&gt;" fill-rule="evenodd" class="prefix__s1" d="M1373.5 591.6c-35.1 61.7-140.1 263.3-175.7 345.8 20 18.8 35.7 38.5 44.6 58.1 39.2 84.8 38 204.4 8.6 298.9-29.3 94.6-74 145.7-118.5 192.5-65.3 68.5-162 111.4-233.8 121.7-20.4 2.9-48.7.3-75.2-2 23.7-15.2 63.7-46.3 88.9-71.5 57-56.6 61.2-84.7 61.2-84.7-76.2 77.4-258.5 197.7-323.9 220.6-34.8 12.2-114.2 27.7-164.7 23-42.8-3.8-97.9-26.3-138.7-67.1-41.3-41.4-27.1-114.2-20.6-150.1 6.6-35.8 26.1-91.3 42.5-123.9 17.4-34.7 70.7-143.4 112-202.2 49-69.5 141.7-165.9 203.4-208.7 46.6-32.3 91.8-60.6 136.7-80.5 3.3-78.6 9-164.1 10.3-190.1 1.6-33.4 18.2-153.1-38.2-217.1-47.1-56.1-135.8-91.4-209.2-104.3-73-16.2-193.2-21.5-264.1-51.6-67.9-28.8-93-183.4 52.4-132.7 53 15.3 117.8 46.8 166.4 66.4 75 26.4 169.2 57.9 240.5 87.1 91.3 31.9 132.9 44.5 137.5 143.8 3.1 66.7 20.1 271.2 33.8 369 44.7 1.1 93.1 14 137.8 34.1 42.8-61.3 88.4-123.9 102.5-144 19.2-27.3 97.3-119.6 83.9-203.8-9.9-72.6-65.9-149.9-121.1-200-53.1-52.7-151.8-121.5-195.6-184.8-42-60.7 19.4-204.7 115.2-84.1 36.6 41.3 74.5 102.4 105.1 145 49.3 62.5 112.1 139.4 156.6 202.2 60.2 75.8 88.6 108.6 39.4 195zm-363.2 407.6c-35.3-28.8-99.5-27.2-151.6 5.3-53.3 33.3-85.7 72.9-106.1 123.5-17.9 44.4-17.4 107.6 18.6 129.7 59.6 36.6 131.9 30.7 166.2 15.5 41.8-18.6 83.1-50.9 106-122.3 14.2-44.1 10.4-122.3-33.1-151.7z"/><path id="prefix__&lt;Compound_Path&gt;_copy" fill-rule="evenodd" class="prefix__s1" d="M1373.5 591.6c-35.1 61.7-140.1 263.3-175.7 345.8 20 18.8 35.7 38.5 44.6 58.1 39.2 84.8 38 204.4 8.6 298.9-29.3 94.6-74 145.7-118.5 192.5-65.3 68.5-162 111.4-233.8 121.7-20.4 2.9-48.7.3-75.2-2 23.7-15.2 63.7-46.3 88.9-71.5 57-56.6 61.2-84.7 61.2-84.7-76.2 77.4-258.5 197.7-323.9 220.6-34.8 12.2-114.2 27.7-164.7 23-42.8-3.8-97.9-26.3-138.7-67.1-41.3-41.4-27.1-114.2-20.6-150.1 6.6-35.8 26.1-91.3 42.5-123.9 17.4-34.7 70.7-143.4 112-202.2 49-69.5 141.7-165.9 203.4-208.7 46.6-32.3 91.8-60.6 136.7-80.5 3.3-78.6 9-164.1 10.3-190.1 1.6-33.4 18.2-153.1-38.2-217.1-47.1-56.1-135.8-91.4-209.2-104.3-73-16.2-193.2-21.5-264.1-51.6-67.9-28.8-93-183.4 52.4-132.7 53 15.3 117.8 46.8 166.4 66.4 75 26.4 169.2 57.9 240.5 87.1 91.3 31.9 132.9 44.5 137.5 143.8 3.1 66.7 20.1 271.2 33.8 369 44.7 1.1 93.1 14 137.8 34.1 42.8-61.3 88.4-123.9 102.5-144 19.2-27.3 97.3-119.6 83.9-203.8-9.9-72.6-65.9-149.9-121.1-200-53.1-52.7-151.8-121.5-195.6-184.8-42-60.7 19.4-204.7 115.2-84.1 36.6 41.3 74.5 102.4 105.1 145 49.3 62.5 112.1 139.4 156.6 202.2 60.2 75.8 88.6 108.6 39.4 195zm-363.2 407.6c-35.3-28.8-99.5-27.2-151.6 5.3-53.3 33.3-85.7 72.9-106.1 123.5-17.9 44.4-17.4 107.6 18.6 129.7 59.6 36.6 131.9 30.7 166.2 15.5 41.8-18.6 83.1-50.9 106-122.3 14.2-44.1 10.4-122.3-33.1-151.7z"/></g><path id="prefix__&lt;Path&gt;" d="M936.5 1105.6c-16.4 0-29.7-13.2-29.7-29.7 0-10.7 5.8-20.1 14.4-25.3-9.8-6.5-21.1-10.2-33-10.2-38.1 0-69 37.6-69 84s30.9 84 69 84 68.9-37.6 68.9-84c0-8.6-1-16.9-3-24.7-4.9 3.7-11 5.9-17.6 5.9z" fill="#262659"/></g></g></g></svg>